<!-- Base social icon from fontawesome https://fontawesome.com/license -->
<svg height="45" width="45" viewBox="0 0 45 45" fill="none" xmlns="http://www.w3.org/2000/svg">
<circle cx="22.5" cy="22.5" r="22.5" fill="white"/>
<path d="M22.5 0C10.0706 0 0 10.0706 0 22.5C0 34.9294 10.0706 45 22.5 45C34.9294 45 45 34.9294 45 22.5C45 10.0706 34.9294 0 22.5 0ZM33.5504 15.4143L29.8579 32.8155C29.5857 34.0494 28.8508 34.3488 27.8256 33.7681L22.2006 29.622L19.4879 32.2349C19.1885 32.5343 18.9345 32.7883 18.3538 32.7883L18.753 27.0635L29.1774 17.6462C29.6311 17.247 29.0776 17.0202 28.4788 17.4194L15.5958 25.5302L10.0433 23.7974C8.83669 23.4163 8.80948 22.5907 10.2974 22.0101L31.9899 13.6452C32.997 13.2823 33.877 13.8901 33.5504 15.4143Z" fill="#0088CC"/>
</svg>
