<!-- Base social icon from fontawesome https://fontawesome.com/license -->
<svg height="45" width="45" viewBox="0 0 45 45" fill="none" xmlns="http://www.w3.org/2000/svg">
<circle cx="22.5" cy="22.5" r="22.5" fill="#25D366"/>
<path d="M33.5067 11.448C30.7009 8.65898 26.9643 7.125 22.9933 7.125C14.7969 7.125 8.12723 13.7391 8.12723 21.8672C8.12723 24.4637 8.81027 27.0004 10.1094 29.2383L8 36.875L15.8817 34.823C18.0513 35.9984 20.4955 36.616 22.9866 36.616H22.9933C31.183 36.616 38 30.002 38 21.8738C38 17.9359 36.3125 14.2371 33.5067 11.448ZM22.9933 34.1324C20.7701 34.1324 18.5937 33.5414 16.6987 32.4258L16.25 32.1602L11.5759 33.3754L12.8214 28.8531L12.5268 28.3883C11.2879 26.4359 10.6384 24.1848 10.6384 21.8672C10.6384 15.1137 16.183 9.61523 23 9.61523C26.3013 9.61523 29.4018 10.8902 31.7321 13.2078C34.0625 15.5254 35.4955 18.6 35.4888 21.8738C35.4888 28.634 29.8036 34.1324 22.9933 34.1324ZM29.7701 24.9551C29.4018 24.7691 27.5737 23.8793 27.2321 23.7598C26.8906 23.6336 26.6429 23.5738 26.3951 23.9457C26.1473 24.3176 25.4375 25.141 25.2165 25.3934C25.0022 25.6391 24.7812 25.6723 24.4129 25.4863C22.2299 24.4039 20.7969 23.5539 19.3571 21.1035C18.9754 20.4527 19.7388 20.4992 20.4487 19.0914C20.5692 18.8457 20.5089 18.6332 20.4152 18.4473C20.3214 18.2613 19.5781 16.4484 19.2701 15.7113C18.9688 14.9941 18.6607 15.0938 18.433 15.0805C18.2188 15.0672 17.971 15.0672 17.7232 15.0672C17.4754 15.0672 17.0737 15.1602 16.7321 15.5254C16.3906 15.8973 15.433 16.7871 15.433 18.6C15.433 20.4129 16.7656 22.166 16.9464 22.4117C17.1339 22.6574 19.5647 26.3762 23.2946 27.9766C25.6518 28.9859 26.5759 29.0723 27.7545 28.8996C28.471 28.7934 29.9509 28.0098 30.2589 27.1465C30.567 26.2832 30.567 25.5461 30.4732 25.3934C30.3862 25.2273 30.1384 25.1344 29.7701 24.9551Z" fill="white"/>
</svg>
