<svg viewBox="0 0 287 377" fill="none" xmlns="http://www.w3.org/2000/svg">
<path d="M0 143.877C0 223.338 99.1706 331.96 143.5 331.96C187.829 331.96 287 223.338 287 143.877C287 64.416 222.753 0 143.5 0C64.2471 0 0 64.416 0 143.877Z" fill="#FF4F52"/>
<path d="M233.043 73.6683C200.72 34.9342 152.728 26.903 156.817 49.0728C160.906 71.2425 181.691 66.1179 206.978 94.7419C232.264 123.366 228.965 145.691 241.754 150.909C254.544 156.126 265.366 112.402 233.043 73.6683Z" fill="white" fill-opacity="0.78"/>
<ellipse cx="247.801" cy="179.742" rx="13.7436" ry="13.7622" fill="white" fill-opacity="0.78"/>
<path d="M132.485 326.688C136.451 320.826 145.085 320.826 149.051 326.688L161.952 345.758C166.444 352.399 161.687 361.361 153.669 361.361H127.867C119.849 361.361 115.092 352.399 119.584 345.758L132.485 326.688Z" fill="#FF4F52"/>
</svg>
