<svg viewBox="0 0 361 357" fill="none" xmlns="http://www.w3.org/2000/svg">
<path d="M105.244 17.3131C105.244 17.3131 103.029 22.0927 99.8744 25.2376C93.8578 31.2351 84.7154 40.0728 83.2511 50.3872C81.4239 63.258 94.2854 75.9258 94.2854 75.9258C94.2854 75.9258 110.82 71.5136 114.447 57.5316C117.287 46.5811 114.075 36.7844 109.29 25.4063C107.634 21.4677 105.244 17.3131 105.244 17.3131Z" fill="#5CC667"/>
<path d="M114.447 57.5316C110.82 71.5136 94.2854 75.9258 94.2854 75.9258C94.2854 75.9258 101.829 69.7838 105.354 54.1509C108.879 38.5181 105.244 17.3131 105.244 17.3131C105.244 17.3131 107.634 21.4677 109.29 25.4063C114.075 36.7844 117.287 46.5811 114.447 57.5316Z" fill="#59B162" fill-opacity="0.94"/>
<path d="M161.857 52.8212C161.857 52.8212 155.595 53.2003 150.633 51.5442C141.17 48.386 127.089 43.4216 115.217 47.9602C100.403 53.6237 93.0879 75.6519 93.0879 75.6519C93.0879 75.6519 106.05 91.5659 122.957 87.2559C136.198 83.8804 145.193 74.4033 155.117 62.2135C158.552 57.9939 161.857 52.8212 161.857 52.8212Z" fill="#7CD885"/>
<path d="M122.957 87.2559C106.05 91.5659 93.088 75.6519 93.088 75.6519C93.088 75.6519 103.464 80.4372 122.104 75.0239C140.744 69.6106 161.857 52.8212 161.857 52.8212C161.857 52.8212 158.552 57.9939 155.117 62.2135C145.193 74.4033 136.198 83.8804 122.957 87.2559Z" fill="#59B162" fill-opacity="0.94"/>
<path d="M75.3487 122.273C75.3487 122.273 73.7966 119.319 90.1414 110.793C106.486 102.266 107.866 104.893 107.866 104.893L109.202 107.437L110.539 109.981L145.115 175.797L146.322 178.095L147.529 180.393C147.529 180.393 149.513 184.168 133.254 192.858C116.995 201.549 115.012 197.774 115.012 197.774L113.805 195.476L112.598 193.178L78.0217 127.361L76.6852 124.817L75.3487 122.273Z" fill="#5CC667"/>
<path d="M28.3184 35.28C28.3184 35.28 26.7664 32.3256 43.1112 23.7994C59.456 15.2732 60.8356 17.8993 60.8356 17.8993L62.1721 20.4433L63.5086 22.9874L98.0848 88.8039L99.2919 91.1017L100.499 93.3996C100.499 93.3996 102.482 97.1746 86.2237 105.865C69.9651 114.555 67.9819 110.78 67.9819 110.78L66.7747 108.482L65.5676 106.185L30.9914 40.368L29.6549 37.824L28.3184 35.28Z" fill="#5CC667"/>
<path d="M43.1112 23.7994C26.7664 32.3256 28.3184 35.28 28.3184 35.28L29.6549 37.824L30.9914 40.368L65.5676 106.185L66.7747 108.482L67.9819 110.78C67.9819 110.78 69.9651 114.555 86.2237 105.865C86.2237 105.865 81.2826 107.626 59.1931 67.3203C37.1036 27.0145 43.1112 23.7994 43.1112 23.7994Z" fill="#59B162"/>
<path d="M90.2205 110.339C73.8757 118.865 75.4278 121.819 75.4278 121.819L76.7643 124.363L78.1008 126.907L112.677 192.724L113.884 195.022L115.091 197.32C115.091 197.32 117.074 201.095 133.333 192.404C133.333 192.404 128.392 194.166 106.302 153.86C84.213 113.554 90.2205 110.339 90.2205 110.339Z" fill="#59B162"/>
<path d="M75.6055 209.456C74.7452 200.638 81.6748 193 90.5346 193H309.465C318.325 193 325.255 200.638 324.394 209.456L311.321 343.457C310.572 351.14 304.112 357 296.392 357H103.608C95.8877 357 89.4283 351.14 88.6787 343.456L75.6055 209.456Z" fill="#B68164"/>
<rect x="41" y="162" width="320" height="51" rx="15" fill="#875B42"/>
<path fill-rule="evenodd" clip-rule="evenodd" d="M316.244 293L313.024 326H273C264.716 326 258 319.284 258 311V308C258 299.716 264.716 293 273 293H316.244Z" fill="#875B42"/>
</svg>
