<svg viewBox="0 0 361 357" fill="none" xmlns="http://www.w3.org/2000/svg">
<path d="M126.769 152.835C126.425 153.192 126.086 153.537 125.754 153.869C119.462 160.16 106.461 171.957 97.6208 169.785C89.0255 167.672 84.7969 159.601 83.5959 157.308C83.5617 157.243 83.53 157.182 83.5007 157.127C82.4415 155.117 78.927 148.852 79.9374 136.208C80.7733 125.746 85.5905 117.199 89.1797 113.61C93.3356 109.454 103.113 104.499 111.268 104.349C124.858 104.098 129.936 107.626 131.882 108.749C131.935 108.781 131.994 108.814 132.057 108.85C134.276 110.125 142.089 114.613 143.976 123.433C145.917 132.504 134.094 145.53 127.802 151.821C127.47 152.153 127.125 152.492 126.769 152.835Z" fill="#3A3A3A" stroke="#3A3A3A" stroke-width="13"/>
<path d="M270.059 152.836C270.403 153.192 270.742 153.537 271.075 153.869C277.366 160.161 290.367 171.957 299.207 169.785C307.803 167.673 312.031 159.601 313.232 157.308C313.266 157.243 313.298 157.183 313.327 157.127C314.387 155.117 317.901 148.852 316.891 136.208C316.055 125.746 311.238 117.199 307.648 113.61C303.493 109.454 293.715 104.499 285.56 104.349C271.971 104.098 266.892 107.626 264.946 108.75C264.893 108.781 264.834 108.814 264.771 108.851C262.552 110.125 254.739 114.613 252.852 123.433C250.911 132.504 262.734 145.53 269.026 151.821C269.358 152.153 269.703 152.492 270.059 152.836Z" fill="#3A3A3A" stroke="#3A3A3A" stroke-width="13"/>
<path d="M198.556 285.953C196.935 285.985 195.352 286 193.811 286C164.672 286 107.185 283.008 91.2079 255.629C75.6731 229.007 83.9737 198.425 86.3313 189.739C86.3984 189.492 86.4607 189.262 86.5175 189.051C88.5695 181.421 102.591 141.48 122.575 125.312C141.91 109.669 164.672 100.031 193.811 100.031C195.401 100.031 196.983 100.06 198.556 100.117C200.128 100.06 201.71 100.031 203.3 100.031C232.439 100.031 255.201 109.669 274.536 125.312C294.52 141.48 308.542 181.421 310.594 189.051C310.651 189.262 310.713 189.492 310.78 189.739C313.138 198.425 321.438 229.007 305.903 255.629C289.926 283.008 232.439 286 203.3 286C201.76 286 200.176 285.985 198.556 285.953Z" fill="white"/>
<path d="M193.812 286C195.352 286 196.935 285.985 198.556 285.953C200.176 285.985 201.76 286 203.3 286C232.439 286 289.927 283.008 305.903 255.629C307.886 252.231 309.481 248.768 310.749 245.295C310.749 245.295 299.431 274.618 198.556 274.811C97.6806 275.004 86.7976 246.453 86.7976 246.453C87.99 249.537 89.4456 252.608 91.208 255.629C107.185 283.008 164.672 286 193.812 286Z" fill="#BCC1D4"/>
<ellipse cx="121.894" cy="244.378" rx="17.2004" ry="8.70271" fill="#FFBEBE"/>
<ellipse cx="280.289" cy="244.378" rx="17.2004" ry="8.70271" fill="#FFBEBE"/>
<path d="M158.558 224.275C154.357 231.722 148.107 238.234 142.636 240.001C135.716 242.236 132.731 241.328 125.825 238.158C113.833 232.652 116.659 221.168 122.603 212.655C129.442 202.859 147.033 196.782 159.025 202.288C167.137 206.686 161.942 218.277 158.558 224.275Z" fill="#3A3A3A"/>
<path d="M239.196 225.39C242.944 233.146 248.821 240.078 254.223 242.179C261.056 244.835 264.127 244.094 271.301 241.297C283.759 236.441 281.663 224.693 276.228 215.761C269.973 205.482 252.629 198.329 240.171 203.185C231.699 207.149 236.177 219.143 239.196 225.39Z" fill="#3A3A3A"/>
<ellipse cx="151.569" cy="213.73" rx="5.29244" ry="5.29729" fill="white"/>
<ellipse cx="245.321" cy="213.73" rx="5.29243" ry="5.29729" fill="white"/>
<path d="M207.896 234.351C207.896 236.65 205.51 241.162 199.768 241.162C194.027 241.162 191.83 236.65 191.83 234.351C196.555 233.027 199.768 226.784 199.768 226.784C199.768 226.784 205.628 234.351 207.896 234.351Z" fill="#FAB0B0" stroke="#3A3A3A" stroke-width="5"/>
<path d="M204.003 224.909C201.497 226.802 198.039 226.802 195.533 224.909C191.339 221.74 192.318 215.928 197.569 215.674C198.272 215.64 199.006 215.622 199.768 215.622C200.531 215.622 201.264 215.64 201.967 215.674C207.218 215.928 208.198 221.74 204.003 224.909Z" fill="#3A3A3A"/>
<path d="M188.835 235.288C196.621 235.285 203.748 225.1 199.374 223.489C195 221.878 194.747 229.923 188.833 229.925C182.919 229.927 181.819 221.883 178.284 223.497C174.749 225.112 181.049 235.292 188.835 235.288Z" fill="#3A3A3A"/>
<path d="M210.701 235.293C202.915 235.29 195.788 225.101 200.162 223.489C204.536 221.877 204.79 229.925 210.703 229.927C216.617 229.93 217.718 221.882 221.253 223.498C224.787 225.113 218.487 235.296 210.701 235.293Z" fill="#3A3A3A"/>
<ellipse rx="31.731" ry="17.2445" transform="matrix(0.978043 0.208402 -0.235028 0.971989 172.087 100.364)" fill="#FFBECA"/>
<ellipse rx="31.731" ry="17.2445" transform="matrix(-0.978043 0.208402 0.235028 0.971989 220.913 100.364)" fill="#FFBECA"/>
<ellipse rx="22.7331" ry="12.6424" transform="matrix(-0.88919 0.457538 0.504243 0.863562 173.18 122.044)" fill="#FFBECA"/>
<ellipse rx="22.7331" ry="12.6424" transform="matrix(0.88919 0.457538 -0.504243 0.863562 225.493 123.681)" fill="#FFBECA"/>
<ellipse rx="22.5302" ry="16.7135" transform="matrix(0.129166 -0.991623 0.993477 0.114037 199.237 116.789)" fill="#FFBECA"/>
<ellipse rx="21.5064" ry="15.5396" transform="matrix(-0.661025 0.750364 -0.789916 -0.613215 202.044 86.7952)" fill="#FFBECA"/>
<ellipse cx="213.069" cy="89.2382" rx="27.5" ry="5.9611" transform="rotate(-55.492 213.069 89.2382)" fill="#99576F"/>
<ellipse rx="27.5" ry="5.9611" transform="matrix(-0.452878 -0.891573 -0.891573 0.452878 186.565 87.6447)" fill="#99576F"/>
<ellipse cx="200.562" cy="87.5438" rx="24.1831" ry="4.78052" transform="rotate(-88.2676 200.562 87.5438)" fill="#99576F"/>
</svg>
