<svg width="348" height="345" viewBox="0 0 348 345" fill="none" xmlns="http://www.w3.org/2000/svg">
<path d="M78.5674 267.342C65.8933 261.079 57.5997 256.661 51.0436 248.327C44.4874 239.992 42.6113 231.898 45.0717 226.907C47.4293 222.123 51.9165 217.979 62.7628 218.272C73.609 218.565 83.749 223.593 96.9224 230.103C121.552 242.274 137.41 260.477 132.341 270.76C127.272 281.043 103.197 279.513 78.5674 267.342Z" fill="#3A3A3A"/>
<path fill-rule="evenodd" clip-rule="evenodd" d="M261.068 322.379C261.868 313.889 259.136 307.038 257.261 302.335C256.672 300.859 256.168 299.594 255.884 298.557C254.418 293.158 244.404 264.898 230.132 253.459C216.322 242.391 196.678 235.632 175.866 235.632C155.055 235.632 135.41 242.391 121.601 253.459C107.328 264.898 97.3144 293.158 95.8488 298.557C95.7314 298.986 95.5963 299.453 95.4503 299.958C94.0196 304.907 91.5422 313.477 94.4162 324.621C118.634 337.625 146.317 345 175.72 345C206.773 345 235.908 336.774 261.068 322.379Z" fill="white"/>
<path d="M175.866 235.632C196.678 235.632 216.322 242.391 230.132 253.459C238.538 260.196 245.467 272.769 250.042 283.069C250.042 283.069 207.002 293.542 175.866 293.542C144.731 293.542 104.844 276.338 104.844 276.338C109.35 266.943 114.249 259.352 121.601 253.459C135.41 242.391 155.055 235.632 175.866 235.632Z" fill="#3A3A3A"/>
<path d="M261.484 265.003C265.917 271.691 268.657 276.271 268.38 282.973C268.104 289.676 265.145 295.227 261.153 297.879C257.328 300.421 252.55 302.102 246.201 299.603C239.851 297.105 236.313 291.743 231.706 284.791C223.091 271.794 222.773 256.828 230.996 251.363C239.219 245.899 252.869 252.006 261.484 265.003Z" fill="#3A3A3A"/>
<path d="M238.957 157.006C239.236 157.295 239.511 157.575 239.781 157.845C244.887 162.953 255.44 172.531 262.614 170.767C269.59 169.052 273.023 162.499 273.997 160.637C274.025 160.584 274.051 160.535 274.075 160.49C274.934 158.858 277.787 153.771 276.967 143.505C276.288 135.011 272.378 128.072 269.465 125.158C266.092 121.784 258.157 117.761 251.538 117.638C240.508 117.435 236.386 120.299 234.807 121.212C234.764 121.237 234.716 121.264 234.665 121.294C232.864 122.328 226.522 125.972 224.991 133.133C223.416 140.498 233.012 151.074 238.118 156.182C238.388 156.452 238.668 156.727 238.957 157.006Z" fill="#3A3A3A" stroke="#3A3A3A" stroke-width="13"/>
<path d="M122.658 157.006C122.379 157.295 122.104 157.575 121.834 157.845C116.728 162.953 106.176 172.531 99.001 170.767C92.0248 169.052 88.5927 162.499 87.6179 160.637C87.5902 160.584 87.5644 160.535 87.5406 160.49C86.681 158.858 83.8285 153.771 84.6486 143.505C85.3271 135.011 89.2368 128.072 92.1499 125.158C95.523 121.784 103.458 117.761 110.078 117.638C121.107 117.435 125.229 120.299 126.808 121.212C126.852 121.237 126.899 121.264 126.951 121.294C128.752 122.328 135.093 125.972 136.624 133.133C138.2 140.498 128.604 151.074 123.497 156.182C123.227 156.452 122.947 156.727 122.658 157.006Z" fill="#3A3A3A" stroke="#3A3A3A" stroke-width="13"/>
<path d="M180.693 265.086C182.008 265.112 183.293 265.125 184.543 265.125C208.194 265.125 254.852 262.695 267.819 240.466C280.428 218.851 273.691 194.021 271.777 186.968C271.723 186.768 271.672 186.581 271.626 186.41C269.961 180.215 258.58 147.786 242.361 134.659C226.668 121.958 208.194 114.133 184.543 114.133C183.253 114.133 181.969 114.157 180.693 114.203C179.416 114.157 178.133 114.133 176.842 114.133C153.192 114.133 134.718 121.958 119.025 134.659C102.805 147.786 91.4249 180.215 89.7594 186.41C89.7133 186.581 89.6628 186.768 89.6084 186.968C87.6949 194.021 80.9578 218.851 93.5663 240.466C106.534 262.695 153.192 265.125 176.842 265.125C178.092 265.125 179.377 265.112 180.693 265.086Z" fill="white"/>
<path d="M184.543 265.125C183.293 265.125 182.008 265.112 180.693 265.086C179.377 265.112 178.092 265.125 176.842 265.125C153.192 265.125 106.534 262.695 93.5663 240.466C91.957 237.707 90.6628 234.896 89.6336 232.076C89.6336 232.076 98.8196 255.883 180.693 256.04C262.566 256.197 271.399 233.015 271.399 233.015C270.431 235.52 269.25 238.013 267.819 240.466C254.852 262.695 208.194 265.125 184.543 265.125Z" fill="#BCC1D4"/>
<ellipse rx="13.9604" ry="7.06589" transform="matrix(-1 0 0 1 242.914 231.331)" fill="#FFBEBE"/>
<ellipse rx="13.9604" ry="7.06589" transform="matrix(-1 0 0 1 114.356 231.331)" fill="#FFBEBE"/>
<path d="M213.156 215.009C216.566 221.055 221.638 226.342 226.079 227.777C231.695 229.592 234.118 228.855 239.723 226.281C249.456 221.81 247.162 212.487 242.338 205.575C236.787 197.621 222.51 192.687 212.777 197.157C206.193 200.728 210.409 210.139 213.156 215.009Z" fill="#3A3A3A"/>
<path d="M147.708 215.914C144.666 222.212 139.896 227.84 135.511 229.545C129.966 231.702 127.473 231.1 121.651 228.83C111.54 224.887 113.24 215.348 117.652 208.096C122.728 199.75 136.806 193.943 146.917 197.885C153.792 201.104 150.158 210.842 147.708 215.914Z" fill="#3A3A3A"/>
<ellipse rx="4.29549" ry="4.30098" transform="matrix(-1 0 0 1 218.828 206.447)" fill="white"/>
<ellipse rx="4.29549" ry="4.30098" transform="matrix(-1 0 0 1 142.737 206.447)" fill="white"/>
<path d="M173.112 223.19C173.112 225.057 175.049 228.72 179.709 228.72C184.369 228.72 186.152 225.057 186.152 223.19C182.317 222.115 179.709 217.046 179.709 217.046C179.709 217.046 174.953 223.19 173.112 223.19Z" fill="#FAB0B0" stroke="#3A3A3A" stroke-width="4"/>
<path d="M176.27 215.522C178.304 217.06 181.113 217.06 183.147 215.522C186.552 212.949 185.757 208.232 181.494 208.026C180.923 207.998 180.328 207.983 179.709 207.983C179.089 207.983 178.494 207.998 177.923 208.026C173.661 208.232 172.866 212.949 176.27 215.522Z" fill="#3A3A3A"/>
<path d="M188.582 223.951C182.263 223.948 176.478 215.679 180.028 214.371C183.579 213.062 183.784 219.594 188.584 219.596C193.384 219.598 194.277 213.067 197.146 214.378C200.015 215.688 194.901 223.953 188.582 223.951Z" fill="#3A3A3A"/>
<path d="M170.835 223.955C177.154 223.952 182.939 215.68 179.389 214.371C175.838 213.062 175.633 219.596 170.833 219.598C166.033 219.6 165.14 213.066 162.271 214.378C159.402 215.689 164.516 223.957 170.835 223.955Z" fill="#3A3A3A"/>
<path d="M197.809 234.488C197.809 234.488 198.388 236.64 199.481 238.18C201.565 241.117 204.752 245.464 204.611 249.868C204.436 255.364 198.117 259.708 198.117 259.708C198.117 259.708 191.508 256.668 191.01 250.578C190.62 245.808 192.683 241.96 195.521 237.566C196.504 236.045 197.809 234.488 197.809 234.488Z" fill="#5CC667"/>
<path d="M191.01 250.578C191.508 256.668 198.117 259.708 198.117 259.708C198.117 259.708 195.404 256.6 195.069 249.83C194.735 243.06 197.809 234.488 197.809 234.488C197.809 234.488 196.504 236.045 195.521 237.566C192.683 241.96 190.62 245.808 191.01 250.578Z" fill="#59B162" fill-opacity="0.94"/>
<path d="M171.477 245.169C171.477 245.169 174.075 245.782 176.276 245.452C180.475 244.824 186.741 243.779 191.387 246.533C197.183 249.97 198.639 259.681 198.639 259.681C198.639 259.681 192.041 265.37 185.268 262.345C179.963 259.976 176.885 255.373 173.616 249.572C172.485 247.564 171.477 245.169 171.477 245.169Z" fill="#7CD885"/>
<path d="M185.268 262.345C192.041 265.37 198.639 259.681 198.639 259.681C198.639 259.681 193.939 260.921 186.52 257.31C179.101 253.7 171.477 245.169 171.477 245.169C171.477 245.169 172.485 247.564 173.616 249.572C176.885 255.373 179.963 259.976 185.268 262.345Z" fill="#59B162" fill-opacity="0.94"/>
<path d="M202.667 280.397C202.667 280.397 203.533 279.279 197.304 274.538C191.075 269.797 190.305 270.791 190.305 270.791L189.559 271.754L188.812 272.717L169.502 297.63L168.828 298.499L168.154 299.369C168.154 299.369 167.047 300.798 173.228 305.601C179.408 310.404 180.516 308.975 180.516 308.975L181.19 308.105L181.864 307.236L201.174 282.323L201.92 281.36L202.667 280.397Z" fill="#5CC667"/>
<path d="M228.746 247.566C228.746 247.566 229.613 246.448 223.384 241.707C217.155 236.966 216.385 237.96 216.385 237.96L215.638 238.923L214.892 239.886L195.582 264.798L194.908 265.668L194.234 266.538C194.234 266.538 193.126 267.967 199.307 272.77C205.488 277.573 206.596 276.144 206.596 276.144L207.27 275.274L207.944 274.404L227.254 249.492L228 248.529L228.746 247.566Z" fill="#5CC667"/>
<path d="M223.384 241.707C229.613 246.448 228.746 247.566 228.746 247.566L228 248.529L227.254 249.492L207.944 274.404L207.27 275.274L206.596 276.144C206.596 276.144 205.488 277.573 199.307 272.77C199.307 272.77 201.25 273.863 213.459 258.673C225.668 243.483 223.384 241.707 223.384 241.707Z" fill="#59B162"/>
<path d="M197.304 274.343C203.533 279.084 202.667 280.203 202.667 280.203L201.92 281.166L201.174 282.129L181.864 307.041L181.19 307.911L180.516 308.78C180.516 308.78 179.408 310.209 173.227 305.406C173.227 305.406 175.17 306.499 187.379 291.31C199.588 276.12 197.304 274.343 197.304 274.343Z" fill="#59B162"/>
<path d="M224.972 298.694C233.968 302.977 240.064 305.571 248.059 304.45C256.055 303.329 262.087 299.27 264.412 294.374C266.64 289.682 267.628 284 263.253 277.016C258.878 270.033 251.669 266.617 242.319 262.166C224.837 253.843 206.782 255.272 201.992 265.359C197.202 275.446 207.49 290.371 224.972 298.694Z" fill="#3A3A3A"/>
<path d="M5.63558 113.158L5.72527 113.463C5.74065 113.516 5.75858 113.577 5.77396 113.629C5.78934 113.682 5.85596 113.908 5.89696 114.048L5.92002 114.127L6.01996 114.467L6.03527 114.519C6.04042 114.536 6.0425 114.555 6.04765 114.572C6.05281 114.59 6.061 114.607 6.06616 114.624L6.14809 114.903L6.22241 115.156L6.48278 115.753C6.52122 115.883 6.60574 116.01 6.6616 116.136C6.6821 116.206 6.70261 116.276 6.72055 116.337L6.75642 116.459C6.76244 116.495 6.77276 116.53 6.78717 116.564C6.80057 116.609 6.81508 116.659 6.82924 116.707C6.84388 116.757 6.8616 116.806 6.88525 116.852C6.92908 116.938 6.97009 117.025 6.99722 117.117C6.99897 117.123 7.00072 117.129 7.00247 117.135C7.00852 117.156 7.01813 117.189 7.03284 117.225C7.08213 117.347 7.17872 117.445 7.24898 117.556L7.36532 117.758L7.47913 117.937C7.50833 117.983 7.53091 118.032 7.54622 118.084C7.5539 118.111 7.65233 118.252 7.71281 118.329C7.82567 118.513 7.94566 118.689 8.07039 118.873C8.18264 119.038 8.30556 119.197 8.41442 119.365C8.44595 119.411 8.4809 119.454 8.51897 119.495C9.63162 120.974 10.948 122.288 12.4289 123.397L12.7087 123.608C13.4062 124.113 14.1357 124.573 14.8925 124.984L46.8803 142.256C48.8185 143.303 51.2386 142.584 52.293 140.648L69.58 108.911C70.1328 107.899 70.5983 106.843 70.9715 105.752C71.2051 105.072 71.4034 104.381 71.5655 103.681C72.4211 99.7996 72.1115 95.7514 70.6757 92.0455C70.5732 91.6964 70.401 91.368 70.2462 91.0343C70.0339 90.5681 69.8049 90.1068 69.5563 89.6561C69.4299 89.427 69.3072 89.1937 69.1674 88.9725L69.0926 88.8542C69.0718 88.8213 69.0557 88.7857 69.0447 88.7484C69.0336 88.7104 69.0172 88.6743 68.9959 88.641L68.8701 88.4438C68.7476 88.2524 68.6164 88.0635 68.4852 87.8746C68.354 87.6857 68.3679 87.7005 68.3048 87.6148C68.0441 87.2429 67.7694 86.8876 67.4807 86.5492L67.3044 86.3357L67.0425 86.0241C66.8956 85.8661 66.7569 85.7057 66.605 85.5577C66.5942 85.5471 66.5862 85.534 66.5819 85.5195C66.5778 85.5054 66.5702 85.4926 66.5597 85.4822L66.3619 85.286L66.1205 85.0442C66.0236 84.94 65.9181 84.8384 65.8125 84.7368L65.6593 84.6017C65.6065 84.5489 65.567 84.4803 65.5086 84.4337C65.4722 84.4046 65.4289 84.3776 65.3953 84.3477C65.3313 84.2907 65.2447 84.2214 65.178 84.1557C65.1114 84.09 64.849 83.8734 64.6783 83.7435L64.5025 83.5962L64.2816 83.4242L64.052 83.2548L63.7635 83.0459L63.5113 82.8642L63.4186 82.8062L63.2392 82.6789L62.9471 82.4899L62.8292 82.4109L62.6099 82.2764C62.5371 82.222 62.4494 82.1814 62.3679 82.1296C62.2865 82.0777 61.9206 81.8632 61.6838 81.7338L61.4157 81.5947L61.0011 81.3755L60.7243 81.2389L60.3963 81.089L60.1898 80.9981L59.972 80.9011L59.5502 80.7219L59.3262 80.6362C58.9747 80.5027 58.6144 80.3718 58.2654 80.2471L58.0465 80.1788L57.8364 80.1079L57.6314 80.0545L57.3213 79.9657L57.1788 79.9318L56.9538 79.8748C56.6663 79.7983 56.3727 79.7331 56.0816 79.6766L55.9104 79.6417L55.6393 79.5888L55.4194 79.5492L55.1908 79.5122L54.9735 79.4814L54.7562 79.4506L54.5302 79.4224L53.6426 79.333L53.4217 79.3221L53.1895 79.3052L52.9774 79.2918L52.8052 79.2856L52.4059 79.28L52.1963 79.2753L52.0353 79.2753L51.8744 79.2753L51.5838 79.285L51.2097 79.3003C50.8756 79.3083 50.5387 79.3313 50.2049 79.3677C50.1027 79.3788 50.0019 79.4 49.9033 79.429L49.6942 79.4906L49.4851 79.5521L49.2151 79.6317L49.0582 79.6778C48.6969 79.7368 48.3356 79.7958 47.9707 79.8748L45.4964 80.6034L45.2349 80.6803L45.052 80.7342L44.2064 81.078L43.8384 81.2432L43.5857 81.3176L43.3766 81.3792L43.1675 81.4407C43.0748 81.468 42.9843 81.5027 42.8978 81.546C42.5962 81.6968 42.3033 81.8588 42.0057 82.0293L41.6566 82.239C41.6213 82.2602 41.5834 82.2769 41.5438 82.2885C41.5024 82.3007 41.4628 82.3184 41.426 82.3411L41.3051 82.4157L40.9725 82.6369L40.8285 82.7267C40.584 82.8935 40.3483 83.0577 40.1177 83.2393L39.9526 83.3543L39.7455 83.5195L39.4294 83.7643L39.0798 84.0568L38.9373 84.1841L38.7477 84.3442L38.5842 84.4966L38.4207 84.649L38.2127 84.843L38.0517 85.0042L37.6766 85.3706L37.527 85.5379C37.345 85.7242 37.1657 85.9192 36.9976 86.1204L36.854 86.2764L36.7069 86.4524L36.5599 86.6284L36.4635 86.7516L35.867 87.5245C35.8279 87.5917 35.7833 87.6556 35.7337 87.7154L35.4672 88.0972L35.3452 88.2943L35.212 88.4852L35.0259 88.7865L34.8671 89.0513L34.637 89.4604C34.6358 89.4621 34.6346 89.4639 34.6334 89.4656C34.5417 89.5995 34.3604 89.6467 34.2101 89.5861L33.7954 89.3668L33.5187 89.2303L33.1994 89.0778L32.9842 88.9895L32.775 88.8899L32.3445 88.7133C32.2705 88.6899 32.1985 88.6603 32.1293 88.625L31.0684 88.2358L30.8496 88.1676L30.6307 88.0993L30.4257 88.0459L30.1244 87.9545L29.9732 87.9232L29.7569 87.8636C29.4627 87.7859 29.1691 87.7207 28.8759 87.6679L28.7047 87.633L28.4336 87.5801L28.2137 87.5406L27.9939 87.5011L27.7679 87.4728L27.5506 87.442L27.3246 87.4137L26.4369 87.3243L26.216 87.3135L25.9839 87.2966L25.7717 87.2832L25.5995 87.277L25.2002 87.2713L24.9906 87.2667L24.8297 87.2667L24.6688 87.2666L24.3869 87.2738L24.0128 87.2891C23.6717 87.3019 23.3339 87.3255 22.9993 87.3601C22.8971 87.3707 22.7962 87.3914 22.6977 87.4204L22.4886 87.482L22.2795 87.5435L22.0181 87.6205L21.8613 87.6667C21.4912 87.7282 21.13 87.7872 20.7738 87.8636L18.2907 88.5947L18.0293 88.6717L17.855 88.723L17.0094 89.0668C16.9687 89.0788 16.9289 89.0905 16.8901 89.1036C16.7198 89.1613 16.5612 89.2556 16.3888 89.3064L16.1797 89.368L15.9706 89.4295C15.8778 89.4569 15.7874 89.4917 15.701 89.5352C15.4045 89.6845 15.1067 89.8477 14.8175 90.0155L14.4593 90.2284C14.4242 90.2493 14.3866 90.2657 14.3474 90.2772C14.3056 90.2895 14.2656 90.3073 14.2286 90.3302L14.1082 90.4045L13.7756 90.6257L13.6315 90.7155C13.3958 90.8797 13.1513 91.0465 12.9207 91.2282L12.7644 91.3405L12.5573 91.5058L12.2411 91.7506L11.8829 92.0456L11.7491 92.1704L11.5595 92.3305L11.3873 92.4855L11.2238 92.6378L11.0244 92.8293L10.8548 92.993L10.4884 93.3568L10.33 93.5267C10.1481 93.713 9.97739 93.9054 9.80058 94.1092L9.65707 94.2652L9.51868 94.4387L9.37164 94.6147L9.28399 94.7353C9.07386 94.9867 8.87502 95.2444 8.68744 95.5082L8.54546 95.7017L8.28766 96.0809L8.15703 96.2806L8.03248 96.4689L7.86489 96.7363L7.70602 97.0011L7.61734 97.1505L7.46718 97.4127L7.39698 97.5282L7.31703 97.675L7.172 97.9547L6.94697 98.3812C6.90648 98.4689 6.86347 98.5479 6.83169 98.6331L6.62667 99.0632L6.42322 99.5308C6.19413 100.072 5.98249 100.609 5.81234 101.19L5.73802 101.42L5.6688 101.668L5.60679 101.876L5.50739 102.246L5.42385 102.574L5.37312 102.788L5.33568 102.951L5.30703 103.111C5.28292 103.188 5.26475 103.266 5.25269 103.345L5.21222 103.594C5.11881 104.076 5.0464 104.558 4.98955 105.043C4.97055 105.205 4.95089 105.37 4.93905 105.533L4.90462 106.006C4.89383 106.154 4.94855 106.314 4.88624 106.449C4.84575 106.536 4.87652 106.641 4.86986 106.747C4.86493 106.836 4.8656 106.924 4.8719 107.012C4.86612 107.121 4.87663 107.231 4.8699 107.339C4.86821 107.366 4.86697 107.393 4.86882 107.421L4.87244 107.723C4.87244 107.884 4.88115 108.043 4.88986 108.201C4.88655 108.37 4.91717 108.538 4.92104 108.707C4.92188 108.744 4.92351 108.78 4.92828 108.816C4.94417 108.934 4.95647 108.912 4.96928 108.955C4.98209 108.999 5.00772 109.086 5.02566 109.147L5.07179 109.304L5.10766 109.427L5.14354 109.549L5.17685 109.662C5.20247 109.749 5.22554 109.828 5.2486 109.907C5.27166 109.985 5.29473 110.064 5.31779 110.142C5.34086 110.221 5.37161 110.325 5.39723 110.413C5.42286 110.5 5.44592 110.578 5.47155 110.666L5.51511 110.814L5.59199 111.076C5.6048 111.119 5.61761 111.163 5.63298 111.215C5.64836 111.268 5.68424 111.39 5.71243 111.486C5.72781 111.538 5.74574 111.599 5.76111 111.652C5.78275 111.708 5.79989 111.767 5.81237 111.826C5.84055 111.922 5.86875 112.018 5.89694 112.114C5.92512 112.21 5.95587 112.315 5.98406 112.411C6.01225 112.507 5.57049 112.969 5.63558 113.158Z" fill="#FF4F52"/>
<path d="M89.727 44.7998L89.6843 45.024C89.677 45.0624 89.6684 45.1072 89.6611 45.1457C89.6538 45.1841 89.6221 45.3506 89.6026 45.4531L89.5916 45.5107L89.5441 45.7605L89.5368 45.7988C89.5343 45.8117 89.5296 45.8241 89.5272 45.837C89.5247 45.8499 89.5245 45.8631 89.5221 45.876L89.4831 46.0808L89.4477 46.2665L89.4188 46.7323C89.4005 46.8283 89.4129 46.9369 89.4074 47.0354C89.3977 47.0867 89.3879 47.1379 89.3794 47.1828L89.3623 47.2724C89.3544 47.2974 89.3494 47.3232 89.3477 47.3493C89.3413 47.3828 89.3344 47.419 89.3276 47.4544C89.3207 47.491 89.316 47.5281 89.3159 47.5653C89.3158 47.6344 89.3134 47.7036 89.3005 47.7714C89.2997 47.7758 89.2988 47.7801 89.298 47.7845C89.2951 47.7996 89.2905 47.8237 89.288 47.8517C89.2796 47.9456 89.3092 48.0395 89.3177 48.1334L89.3256 48.3009L89.3399 48.452C89.3435 48.4907 89.3417 48.5298 89.3344 48.5681C89.3307 48.5873 89.3472 48.7099 89.3606 48.7788C89.3726 48.9328 89.3913 49.0849 89.4108 49.2428C89.4285 49.3848 89.4547 49.5267 89.4694 49.6691C89.4745 49.7088 89.4825 49.7481 89.4935 49.7866C89.7194 51.0946 90.1293 52.364 90.7111 53.5568L90.8204 53.7834C91.1 54.3345 91.4148 54.8668 91.763 55.3771L105.876 75.9494C107.123 77.767 109.605 78.2342 111.426 76.9943L131.897 63.0564C132.58 62.5926 133.223 62.0713 133.817 61.498C134.189 61.1412 134.541 60.7654 134.874 60.372C136.689 58.1772 137.815 55.4939 138.111 52.6597C138.16 52.4035 138.158 52.1375 138.168 51.874C138.185 51.5071 138.19 51.1378 138.179 50.7689C138.173 50.5813 138.171 50.3923 138.154 50.2053L138.145 50.1054C138.143 50.0776 138.144 50.0496 138.149 50.0222C138.155 49.9944 138.156 49.9659 138.153 49.9377L138.138 49.7707C138.122 49.6085 138.1 49.445 138.078 49.2815C138.056 49.118 138.06 49.132 138.048 49.0567C138.004 48.734 137.945 48.4174 137.871 48.1069L137.828 47.9129L137.763 47.6283C137.721 47.4794 137.685 47.3316 137.637 47.1874C137.633 47.1771 137.633 47.1661 137.635 47.1555C137.637 47.1452 137.636 47.1345 137.633 47.1245L137.571 46.9344L137.496 46.7011C137.468 46.6029 137.434 46.5035 137.4 46.404L137.346 46.2677C137.33 46.2167 137.327 46.16 137.305 46.1111C137.291 46.0806 137.273 46.0492 137.261 46.0191C137.239 45.9618 137.206 45.8892 137.185 45.8254C137.164 45.7617 137.068 45.5375 137.001 45.3987L136.937 45.2471L136.853 45.065L136.762 44.8817L136.646 44.6539L136.545 44.4553L136.505 44.3879L136.432 44.2479L136.307 44.0316L136.258 43.9426L136.162 43.7849C136.133 43.7263 136.091 43.6717 136.056 43.6119C136.021 43.5521 135.858 43.2953 135.749 43.1352L135.623 42.9586L135.431 42.6828L135.299 42.505L135.139 42.3019L135.037 42.1762L134.929 42.0429L134.719 41.7904L134.604 41.6622C134.424 41.4618 134.237 41.2602 134.055 41.0662L133.938 40.9509L133.827 40.8369L133.714 40.7356L133.545 40.5773L133.465 40.5089L133.34 40.3988C133.182 40.2558 133.016 40.1179 132.849 39.9864L132.751 39.908L132.595 39.7854L132.468 39.6881L132.334 39.5896L132.206 39.4987L132.077 39.4078L131.943 39.3156L131.406 38.9676L131.268 38.8883L131.126 38.8013L130.995 38.7233L130.887 38.6628L130.634 38.5283L130.502 38.4566L130.4 38.4038L130.297 38.3511L130.108 38.262L129.865 38.1491C129.649 38.0447 129.427 37.9489 129.202 37.8627C129.133 37.8363 129.062 37.8167 128.99 37.8029L128.836 37.7736L128.683 37.7443L128.484 37.7065L128.369 37.6845C128.119 37.6036 127.87 37.5228 127.611 37.4536L125.795 37.1069L125.603 37.0703L125.469 37.0447L124.817 36.9867L124.528 36.9714L124.343 36.936L124.189 36.9067L124.036 36.8774C123.968 36.8644 123.899 36.8569 123.829 36.8561C123.588 36.8534 123.348 36.8607 123.102 36.8718L122.811 36.8911C122.782 36.8931 122.752 36.8913 122.723 36.8857C122.693 36.8799 122.662 36.8782 122.631 36.8806L122.529 36.8886L122.245 36.9206L122.124 36.9306C121.913 36.9568 121.709 36.9843 121.503 37.0245L121.36 37.0437L121.174 37.0812L120.892 37.1337L120.573 37.2056L120.441 37.2401L120.268 37.28L120.113 37.3236L119.959 37.3672L119.763 37.4227L119.608 37.4727L119.249 37.5834L119.099 37.641C118.922 37.7002 118.743 37.7658 118.57 37.839L118.428 37.8914L118.277 37.9554L118.125 38.0195L118.023 38.0664L117.39 38.3638C117.343 38.3938 117.294 38.4199 117.243 38.4418L116.948 38.598L116.806 38.6837L116.658 38.7617L116.441 38.8929L116.253 39.0097L115.973 39.1951C115.971 39.1958 115.97 39.1965 115.969 39.1973C115.866 39.2526 115.735 39.2233 115.659 39.1353L115.467 38.8595L115.335 38.6817L115.181 38.4798L115.073 38.3529L114.972 38.2208L114.755 37.967C114.715 37.9278 114.679 37.8854 114.647 37.8402L114.097 37.2441L113.98 37.1288L113.863 37.0135L113.75 36.9123L113.587 36.7552L113.501 36.6856L113.383 36.5767C113.22 36.4307 113.054 36.2928 112.885 36.1631L112.787 36.0847L112.631 35.9621L112.504 35.8648L112.377 35.7675L112.242 35.6754L112.113 35.5844L111.979 35.4923L111.442 35.1443L111.304 35.065L111.162 34.978L111.031 34.8999L110.923 34.8395L110.67 34.705L110.538 34.6333L110.435 34.5805L110.333 34.5278L110.151 34.4399L109.907 34.327C109.685 34.2233 109.462 34.1277 109.238 34.04C109.169 34.0133 109.098 33.9934 109.025 33.9796L108.872 33.9503L108.718 33.921L108.527 33.8844L108.412 33.8624C108.155 33.7803 107.906 33.6995 107.654 33.6315L105.831 33.2836L105.639 33.247L105.511 33.2226L104.859 33.1646C104.829 33.1589 104.8 33.1533 104.771 33.149C104.644 33.1299 104.512 33.1381 104.385 33.1139L104.232 33.0846L104.078 33.0553C104.01 33.0423 103.941 33.0349 103.872 33.0344C103.634 33.0323 103.39 33.0388 103.151 33.051L102.853 33.0693C102.824 33.0711 102.795 33.0692 102.766 33.0637C102.735 33.0579 102.704 33.0561 102.673 33.0586L102.572 33.0665L102.287 33.0985L102.166 33.1085C101.962 33.136 101.751 33.1622 101.545 33.2024L101.408 33.2228L101.222 33.2604L100.941 33.3128L100.616 33.3835L100.49 33.4192L100.316 33.4591L100.156 33.5015L100.002 33.5451L99.8119 33.6019L99.6502 33.6506L99.2975 33.7625L99.1409 33.819C98.964 33.8781 98.7922 33.9449 98.6128 34.0168L98.4703 34.0693L98.3253 34.1346L98.1739 34.1986L98.0786 34.2468C97.8623 34.3383 97.6513 34.4374 97.4454 34.5441L97.2915 34.621L97.0031 34.7783L96.8545 34.8628L96.7135 34.9421L96.5191 35.0577L96.3312 35.1745L96.2258 35.2406L96.0443 35.3587L95.9618 35.4093L95.8628 35.4767L95.6788 35.6075L95.3958 35.8057C95.3413 35.8484 95.288 35.8847 95.2399 35.9286L94.9685 36.1357L94.6858 36.3672C94.3626 36.6374 94.0523 36.91 93.7538 37.2248L93.631 37.3474L93.5058 37.4828L93.3983 37.595L93.2137 37.7987L93.0532 37.9805L92.9508 38.1004L92.8737 38.1919L92.8031 38.2846C92.7627 38.3255 92.7255 38.3694 92.6919 38.416L92.5847 38.5615C92.3676 38.8381 92.1636 39.1221 91.9687 39.4127C91.9036 39.5098 91.8373 39.6084 91.7765 39.7082L91.5998 39.9988C91.5444 40.0898 91.5271 40.2095 91.4432 40.2752C91.3887 40.3179 91.3741 40.3948 91.3351 40.4604C91.3031 40.515 91.2746 40.5716 91.2498 40.6299C91.2107 40.6971 91.1814 40.7707 91.1417 40.8376C91.1317 40.8543 91.122 40.8713 91.1142 40.8895L91.0176 41.0834C90.9649 41.1862 90.9186 41.2902 90.8723 41.3942C90.815 41.5008 90.7796 41.618 90.7269 41.7268C90.7154 41.7505 90.7045 41.7744 90.6959 41.7986C90.6673 41.8795 90.6825 41.8691 90.6764 41.9011C90.6703 41.9331 90.6581 41.9972 90.6496 42.042L90.6276 42.1573L90.6106 42.247L90.5935 42.3367L90.5776 42.4199C90.5654 42.484 90.5545 42.5416 90.5435 42.5993C90.5325 42.6569 90.5215 42.7146 90.5106 42.7722C90.4996 42.8298 90.485 42.9067 90.4728 42.9708C90.4606 43.0348 90.4496 43.0925 90.4374 43.1565L90.4167 43.2654L90.3801 43.4575C90.374 43.4896 90.3679 43.5216 90.3606 43.56C90.3533 43.5984 90.3362 43.6881 90.3228 43.7586C90.3155 43.797 90.307 43.8418 90.2996 43.8802C90.2949 43.9235 90.2867 43.9664 90.2753 44.0084C90.2619 44.0788 90.2484 44.1493 90.235 44.2197C90.2216 44.2902 90.207 44.367 90.1936 44.4375C90.1802 44.5079 89.7474 44.6577 89.727 44.7998Z" fill="#FF4F52"/>
<rect width="47.9219" height="70.0351" rx="7" transform="matrix(-0.945888 0.324493 0.323752 0.946142 52.2146 174.648)" fill="#868BA0"/>
<rect width="46.2959" height="68.4142" rx="7" transform="matrix(-0.945888 0.324493 0.323752 0.946142 52.4055 174.258)" fill="#BCC1D4"/>
<rect width="34.2861" height="50.6693" rx="7" transform="matrix(-0.945888 0.324493 0.323752 0.946142 48.822 182.494)" fill="#F4F8FF"/>
<ellipse rx="3.37549" ry="3.37889" transform="matrix(-0.945888 0.324493 0.323752 0.946142 50.6274 241.275)" fill="#868BA0"/>
</svg>
