<svg width="216" height="161" viewBox="0 0 216 161" fill="none" xmlns="http://www.w3.org/2000/svg">
<path d="M164.957 52.0058C165.236 52.2953 165.511 52.5753 165.781 52.8453C170.887 57.9531 181.44 67.5313 188.614 65.7674C195.59 64.0523 199.023 57.4987 199.997 55.6374C200.025 55.5844 200.051 55.5352 200.075 55.4901C200.934 53.8583 203.787 48.7715 202.967 38.5054C202.288 30.0113 198.378 23.0717 195.465 20.1578C192.092 16.7838 184.157 12.7606 177.538 12.6384C166.508 12.4348 162.386 15.2992 160.807 16.2116C160.764 16.2368 160.716 16.2642 160.665 16.2936C158.864 17.3285 152.522 20.972 150.991 28.1333C149.416 35.4984 159.012 46.0742 164.118 51.1821C164.388 51.4521 164.668 51.7271 164.957 52.0058Z" fill="#3A3A3A" stroke="#3A3A3A" stroke-width="13"/>
<path d="M48.6582 52.0058C48.3793 52.2953 48.1043 52.5753 47.8344 52.8453C42.728 57.9531 32.1757 67.5313 25.001 65.7674C18.0248 64.0523 14.5927 57.4987 13.6179 55.6374C13.5902 55.5844 13.5644 55.5352 13.5406 55.4901C12.681 53.8583 9.82852 48.7715 10.6486 38.5054C11.3271 30.0113 15.2368 23.0717 18.1499 20.1578C21.523 16.7838 29.4583 12.7606 36.0777 12.6384C47.1071 12.4348 51.2292 15.2992 52.808 16.2116C52.8517 16.2368 52.8993 16.2642 52.9505 16.2936C54.7516 17.3285 61.093 20.972 62.6245 28.1333C64.1995 35.4984 54.6035 46.0742 49.4971 51.1821C49.2272 51.4521 48.9474 51.7271 48.6582 52.0058Z" fill="#3A3A3A" stroke="#3A3A3A" stroke-width="13"/>
<path d="M106.693 160.086C108.008 160.112 109.293 160.125 110.543 160.125C134.194 160.125 180.852 157.695 193.819 135.466C206.428 113.851 199.691 89.0208 197.777 81.9683C197.723 81.7676 197.672 81.5814 197.626 81.41C195.961 75.2148 184.58 42.786 168.361 29.6589C152.668 16.9582 134.194 9.1333 110.543 9.1333C109.253 9.1333 107.969 9.15659 106.693 9.20269C105.416 9.15659 104.133 9.1333 102.842 9.1333C79.192 9.1333 60.7179 16.9582 45.025 29.6589C28.8052 42.786 17.4249 75.2148 15.7594 81.41C15.7133 81.5814 15.6628 81.7676 15.6084 81.9683C13.6949 89.0208 6.95782 113.851 19.5663 135.466C32.5336 157.695 79.192 160.125 102.842 160.125C104.092 160.125 105.377 160.112 106.693 160.086Z" fill="white"/>
<path d="M110.543 160.125C109.293 160.125 108.008 160.112 106.693 160.086C105.377 160.112 104.092 160.125 102.842 160.125C79.1919 160.125 32.5335 157.695 19.5663 135.466C17.957 132.707 16.6628 129.896 15.6336 127.076C15.6336 127.076 24.8196 150.883 106.693 151.04C188.566 151.197 197.399 128.015 197.399 128.015C196.431 130.52 195.25 133.013 193.819 135.466C180.852 157.695 134.194 160.125 110.543 160.125Z" fill="#BCC1D4"/>
<ellipse rx="13.9604" ry="7.06589" transform="matrix(-1 0 0 1 168.914 126.331)" fill="#FFBEBE"/>
<ellipse rx="13.9604" ry="7.06589" transform="matrix(-1 0 0 1 40.3558 126.331)" fill="#FFBEBE"/>
<path d="M139.156 110.009C142.566 116.055 147.638 121.342 152.079 122.777C157.695 124.592 160.118 123.855 165.723 121.281C175.456 116.81 173.162 107.487 168.338 100.575C162.787 92.6211 148.51 87.6868 138.777 92.157C132.193 95.7278 136.409 105.139 139.156 110.009Z" fill="#3A3A3A"/>
<path d="M73.7076 110.914C70.6656 117.212 65.8962 122.84 61.5113 124.545C55.9656 126.702 53.4734 126.1 47.6507 123.83C37.5395 119.887 39.2403 110.348 43.652 103.096C48.7284 94.7503 62.8055 88.9425 72.9167 92.8853C79.7922 96.104 76.1581 105.842 73.7076 110.914Z" fill="#3A3A3A"/>
<ellipse rx="4.29549" ry="4.30098" transform="matrix(-1 0 0 1 144.828 101.447)" fill="white"/>
<ellipse rx="4.29549" ry="4.30098" transform="matrix(-1 0 0 1 68.7367 101.447)" fill="white"/>
<path d="M99.112 118.19C99.112 120.057 101.049 123.72 105.709 123.72C110.369 123.72 112.152 120.057 112.152 118.19C108.317 117.115 105.709 112.046 105.709 112.046C105.709 112.046 100.953 118.19 99.112 118.19Z" fill="#FAB0B0" stroke="#3A3A3A" stroke-width="4"/>
<path d="M102.27 110.522C104.304 112.06 107.113 112.06 109.147 110.522C112.552 107.949 111.757 103.232 107.494 103.026C106.923 102.998 106.328 102.983 105.709 102.983C105.089 102.983 104.494 102.998 103.923 103.026C99.6606 103.232 98.8655 107.949 102.27 110.522Z" fill="#3A3A3A"/>
<path d="M114.582 118.951C108.263 118.948 102.478 110.679 106.028 109.371C109.579 108.062 109.784 114.594 114.584 114.596C119.384 114.598 120.277 108.067 123.146 109.378C126.015 110.688 120.901 118.953 114.582 118.951Z" fill="#3A3A3A"/>
<path d="M96.8349 118.955C103.154 118.952 108.939 110.68 105.389 109.371C101.838 108.062 101.633 114.596 96.8332 114.598C92.0335 114.6 91.1401 108.066 88.2712 109.378C85.4024 110.689 90.5155 118.957 96.8349 118.955Z" fill="#3A3A3A"/>
</svg>
